<?xml version="1.0" encoding="utf-8"?>
<svg width="783.55096px" height="124.030624px" viewBox="0 0 783.55096 124.030624" version="1.1" xmlns:xlink="http://www.w3.org/1999/xlink" xmlns="http://www.w3.org/2000/svg">
  <defs>
    <linearGradient gradientUnits="objectBoundingBox" x1="0.09442024" y1="-0.07922797" x2="0.90557975" y2="1.079228" id="gradient_1">
      <stop offset="0%" stop-color="#F59536" />
      <stop offset="100%" stop-color="#CF04AA" />
    </linearGradient>
    <path d="M783.551 0L783.551 0L783.551 124.031L0 124.031L0 0L783.551 0Z" id="path_1" />
    <clipPath id="clip_1">
      <use xlink:href="#path_1" clip-rule="evenodd" fill-rule="evenodd" />
    </clipPath>
  </defs>
  <g id="app" clip-path="url(#clip_1)">
    <path d="M783.551 0L783.551 0L783.551 124.031L0 124.031L0 0L783.551 0Z" id="app" fill="none" stroke="none" />
    <g id="Logo" transform="translate(0 0.015312195)">
      <path d="M0 10L55 10L55 65L0 65L0 10L0 10Z" id="Rectangle" fill="#C1C1C1" fill-rule="evenodd" stroke="none" />
      <path d="M59 69L114 69L114 124L59 124L59 69L59 69Z" id="Rectangle-4" fill="#C1C1C1" fill-rule="evenodd" stroke="none" />
      <path d="M68 0L122.164 9.5506L112.614 63.715L58.4494 54.1644L68 0L68 0Z" id="Rectangle-3" fill="url(#gradient_1)" fill-rule="evenodd" stroke="none" />
      <path d="M0 69L55 69L55 124L0 124L0 69L0 69Z" id="Rectangle-5" fill="#007CC3" fill-rule="evenodd" stroke="none" />
    </g>
    <g id="GEOCop" transform="translate(130.164 0)">
      <path d="M108.704 18.5754L88.712 39.733C84.3805 35.9013 80.0907 33.0691 75.8425 31.2366C71.5943 29.4042 67.249 28.4879 62.8064 28.4879C53.6992 28.4879 46.0497 31.6531 39.8579 37.9837C33.6661 44.3144 30.5702 52.1721 30.5703 61.557C30.5702 70.7201 33.5689 78.383 39.5664 84.5467C45.5639 90.7105 52.9773 93.7929 61.8068 93.7929C68.0264 93.7929 73.524 92.0432 78.2998 88.545C83.0755 85.0468 86.6018 80.1603 88.8786 73.8846L59.5579 73.8846L59.5579 47.3963L121.864 47.3963L121.864 52.3942C121.864 60.2798 121.281 67.2912 120.116 73.4272C118.949 79.5632 117.144 85.1033 114.701 90.0452C109.648 100.484 102.442 108.676 93.0852 114.618C83.728 120.56 73.3575 123.531 61.9735 123.531C53.4215 123.531 45.3972 121.976 37.9005 118.866C30.4036 115.756 23.7398 111.258 17.909 105.372C12.1337 99.4854 7.70499 92.8077 4.62301 85.3389C1.541 77.8701 0 69.9983 0 61.7235C0 53.4493 1.541 45.6054 4.62301 38.192C7.70509 30.7785 12.1893 24.1285 18.0756 18.2422C23.9064 12.3003 30.6536 7.77448 38.3169 4.66467C45.9803 1.55486 54.1434 0 62.8064 0C71.2473 0 79.2854 1.54099 86.9211 4.62298C94.5567 7.70507 101.817 12.3559 108.704 18.5754L108.704 18.5754L108.704 18.5754ZM208.994 121.448L205.911 121.448C195.528 121.448 186.448 120.616 178.674 118.949C170.899 117.283 164.346 114.757 159.015 111.369C150.297 105.76 143.564 98.6527 138.816 90.0452C134.068 81.4377 131.694 71.9964 131.694 61.7235C131.694 51.4502 134.054 42.0376 138.774 33.4857C143.494 24.9337 150.241 17.8535 159.015 12.2448C164.346 8.85733 170.899 6.33062 178.674 4.66467C186.448 2.99872 195.528 2.16579 205.911 2.16579L208.994 2.16579L208.994 29.3208C208.216 29.2652 207.397 29.2236 206.536 29.1958C205.676 29.1681 204.44 29.1542 202.83 29.1542C192.39 29.1542 184.087 30.6814 177.923 33.7355C171.76 36.7898 167.345 41.51 164.68 47.8962L208.994 47.8962L208.994 74.551L164.097 74.551C166.096 81.1039 170.371 86.033 176.924 89.3372C183.477 92.6414 192.307 94.293 203.413 94.293C204.912 94.293 206.065 94.2791 206.87 94.2514C207.675 94.2236 208.383 94.2098 208.994 94.2098L208.994 121.448L208.994 121.448L208.994 121.448ZM251.31 61.557C251.31 70.4973 254.335 78.1058 260.388 84.3804C266.441 90.655 273.716 93.7929 282.213 93.7929C290.709 93.7929 297.941 90.6689 303.911 84.422C309.881 78.1751 312.866 70.5527 312.866 61.557C312.866 52.5609 309.896 44.9669 303.954 38.7751C298.012 32.5833 290.765 29.4874 282.213 29.4874C273.605 29.4874 266.303 32.5972 260.305 38.8168C254.308 45.0363 251.31 52.6164 251.31 61.557L251.31 61.557L251.31 61.557ZM220.906 61.7235C220.906 53.4493 222.446 45.6054 225.529 38.1919C228.611 30.7785 233.094 24.073 238.981 18.0756C244.812 12.2448 251.42 7.8022 258.806 4.74793C266.192 1.69377 273.993 0.166641 282.213 0.166641C290.431 0.166641 298.261 1.7215 305.702 4.83131C313.143 7.94113 319.752 12.4114 325.527 18.2422C331.248 24.0175 335.634 30.6258 338.689 38.067C341.743 45.5083 343.27 53.3938 343.27 61.7235C343.27 70.1092 341.743 78.0503 338.689 85.5468C335.634 93.0433 331.248 99.6517 325.527 105.372C319.752 111.258 313.143 115.756 305.702 118.866C298.261 121.976 290.431 123.531 282.213 123.531C274.05 123.531 266.275 121.976 258.889 118.866C251.504 115.756 244.868 111.258 238.981 105.372C233.094 99.3745 228.611 92.683 225.529 85.2973C222.446 77.9117 220.906 70.0537 220.906 61.7235L220.906 61.7235L220.906 61.7235ZM427.816 16.8262C427.095 16.7706 426.345 16.7289 425.568 16.7012C424.79 16.6734 423.624 16.6595 422.069 16.6595C405.91 16.6595 393.165 20.755 383.835 28.9459C374.506 37.1368 369.841 48.2294 369.841 62.2234C369.841 76.2175 374.506 87.3093 383.835 95.501C393.165 103.692 405.91 107.787 422.069 107.787C423.624 107.787 424.804 107.773 425.609 107.745C426.414 107.718 427.15 107.676 427.816 107.621L427.816 121.948L423.236 121.948C414.406 121.948 406.632 121.254 399.913 119.865C393.192 118.477 387.556 116.394 383.002 113.618C373.451 107.787 366.177 100.498 361.178 91.7522C356.181 83.0061 353.682 73.1639 353.682 62.2234C353.682 51.3392 356.181 41.5378 361.178 32.8193C366.177 24.1008 373.451 16.8539 383.002 11.0786C387.556 8.30205 393.192 6.20567 399.913 4.78963C406.632 3.3736 414.406 2.66553 423.236 2.66553L427.816 2.66553L427.816 16.8262L427.816 16.8262L427.816 16.8262ZM438.478 62.2234C438.478 53.8936 439.992 46.0219 443.018 38.6084C446.045 31.195 450.502 24.5173 456.389 18.5754C462.108 12.7446 468.619 8.30205 475.922 5.24779C483.223 2.19352 490.928 0.666389 499.037 0.666389C507.034 0.666389 514.696 2.22125 522.027 5.33106C529.357 8.44087 535.91 12.9112 541.685 18.742C547.46 24.6284 551.861 31.2783 554.887 38.6918C557.913 46.1053 559.427 53.9492 559.427 62.2234C559.427 70.5538 557.899 78.4523 554.846 85.9211C551.792 93.3899 547.405 100.04 541.685 105.871C535.91 111.757 529.357 116.256 522.027 119.366C514.696 122.476 507.034 124.031 499.037 124.031C490.928 124.031 483.223 122.49 475.922 119.408C468.619 116.325 462.108 111.897 456.389 106.121C450.502 100.124 446.045 93.4048 443.018 85.9637C439.992 78.5226 438.478 70.6092 438.478 62.2234L438.478 62.2234L438.478 62.2234ZM454.639 62.0567C454.639 68.4981 455.763 74.5372 458.012 80.1742C460.261 85.8113 463.524 90.8779 467.8 95.3762C472.02 99.7637 476.824 103.123 482.21 105.455C487.597 107.787 493.206 108.953 499.037 108.953C504.923 108.953 510.518 107.787 515.821 105.455C521.125 103.123 525.859 99.7637 530.023 95.3762C534.299 90.8225 537.561 85.7132 539.811 80.0495C542.06 74.3847 543.185 68.3873 543.185 62.0567C543.185 55.7817 542.074 49.8398 539.853 44.2311C537.631 38.6224 534.354 33.5413 530.023 28.9876C525.859 24.545 521.125 21.1577 515.821 18.8253C510.518 16.493 504.923 15.3268 499.037 15.3268C493.149 15.3268 487.513 16.479 482.127 18.7836C476.74 21.0883 471.965 24.434 467.8 28.8211C463.468 33.3746 460.192 38.4696 457.971 44.1061C455.749 49.7427 454.639 55.7261 454.639 62.0567L454.639 62.0567L454.639 62.0567ZM574.588 121.948L574.588 49.8121C574.588 41.982 575.031 35.8596 575.92 31.4449C576.809 27.0301 578.28 23.0735 580.336 19.575C583.945 13.4664 588.679 8.76009 594.537 5.45601C600.395 2.15193 606.934 0.49984 614.154 0.49984C624.982 0.49984 634.228 4.2899 641.892 11.8699C649.555 19.45 653.387 28.5711 653.387 39.2332C653.387 50.2285 649.597 59.3774 642.017 66.6802C634.436 73.9827 624.871 77.6334 613.321 77.6334L596.412 77.6334L596.412 62.5566L611.239 62.5566C619.124 62.5566 625.413 60.3908 630.105 56.0593C634.798 51.7278 637.144 46.0081 637.144 38.9C637.144 32.2918 634.895 26.7385 630.397 22.2405C625.899 17.7425 620.374 15.4934 613.821 15.4934C606.602 15.4934 600.895 17.909 596.703 22.7402C592.511 27.5716 590.414 34.1521 590.414 42.4819L590.414 121.948L574.588 121.948L574.588 121.948L574.588 121.948Z" id="GEOCOP" fill="#000000" fill-rule="evenodd" stroke="none" />
    </g>
  </g>
</svg>