<?xml version="1.0" encoding="UTF-8" standalone="no"?>
<svg
   width="500.164px"
   height="130px"
   viewBox="0 0 500.164 130"
   version="1.1"
   id="svg4"
   sodipodi:docname="app.svg"
   inkscape:version="1.3.2 (091e20e, 2023-11-25, custom)"
   xmlns:inkscape="http://www.inkscape.org/namespaces/inkscape"
   xmlns:sodipodi="http://sodipodi.sourceforge.net/DTD/sodipodi-0.dtd"
   xmlns="http://www.w3.org/2000/svg"
   xmlns:svg="http://www.w3.org/2000/svg">
  <sodipodi:namedview
     id="namedview4"
     pagecolor="#ffffff"
     bordercolor="#000000"
     borderopacity="0.25"
     inkscape:showpageshadow="2"
     inkscape:pageopacity="0.0"
     inkscape:pagecheckerboard="0"
     inkscape:deskcolor="#d1d1d1"
     inkscape:zoom="2.5815072"
     inkscape:cx="318.99969"
     inkscape:cy="167.73147"
     inkscape:window-width="2357"
     inkscape:window-height="1250"
     inkscape:window-x="581"
     inkscape:window-y="223"
     inkscape:window-maximized="0"
     inkscape:current-layer="g4"
     showguides="false" />
  <defs
     id="defs2">
    <linearGradient
       gradientUnits="userSpaceOnUse"
       x1="64.46555"
       y1="-5.0479942"
       x2="116.14842"
       y2="68.762799"
       id="gradient_1"
       gradientTransform="scale(0.99999686)">
      <stop
         offset="0%"
         stop-color="#F59536"
         id="stop1" />
      <stop
         offset="100%"
         stop-color="#CF04AA"
         id="stop2" />
    </linearGradient>
  </defs>
  <g
     id="g4"
     inkscape:label="logo"
     transform="matrix(1.0301819,0,0,1.0301819,0,-0.83310913)">
    <g
       id="Logo"
       transform="matrix(1.0176718,0,0,1.0176718,0,0.80870098)"
       inkscape:label="icon"
       sodipodi:insensitive="true">
      <path
         d="M 0,10 H 55 V 65 H 0 Z"
         id="Rectangle"
         fill="#c1c1c1"
         fill-rule="evenodd"
         stroke="none" />
      <path
         d="m 59,69 h 55 v 55 H 59 Z"
         id="Rectangle-4"
         fill="#c1c1c1"
         fill-rule="evenodd"
         stroke="none" />
      <path
         d="m 68,0 54.164,9.5506 -9.55,54.1644 -54.1646,-9.5506 z"
         id="Rectangle-3"
         fill="url(#gradient_1)"
         fill-rule="evenodd"
         stroke="none"
         style="fill:url(#gradient_1)" />
      <path
         d="m 0,69 h 55 v 55 H 0 Z"
         id="Rectangle-5"
         fill="#007cc3"
         fill-rule="evenodd"
         stroke="none" />
    </g>
    <g
       id="geopilot"
       transform="matrix(1.0202504,0,0,1.0202504,115.14425,4.3268305)"
       inkscape:label="text">
      <g
         transform="translate(16.188995,38.986)"
         id="geo-pilot">
        <path
           d="M 27.775,34.66 V 51.1135 Q 24.543,52.84 20.806,52.84 c -5.252,0 -9.8307,-2.02 -13.736,-6.06 Q 0.505,39.912 0.505,28.701 q 0,-9.494 5.757,-15.756 6.666,-7.272 18.887,-7.272 9.191,0 16.4125,6.6155 7.2215,6.6155 7.2215,15.7055 v 23.129 q 0,11.009 -7.979,16.362 -6.565,4.444 -17.372,4.444 -4.848,0 -9.797,-0.808 Q 8.686,70.313 4.848,69 V 54.052 q 4.444,1.01 8.888,1.818 4.444,0.808 7.272,0.808 4.646,0 6.969,-1.6207 2.727,-1.9253 2.727,-6.079 V 30.3375 q 0,-3.3425 -1.8685,-5.065 Q 26.967,23.55 24.442,23.55 q -2.323,0 -4.1915,1.5789 -1.8685,1.5789 -1.8685,4.227 0,2.9527 1.4645,4.6334 1.4645,1.6807 3.7875,1.6807 0.707,0 1.8685,-0.2809 Q 26.664,35.1082 27.775,34.66 Z M 98.879,23.146 75.851,35.67 71.134,27.5427 80.5017,22.4485 q -1.515,-1.5245 -3.8395,-1.5245 -3.0316,0 -6.1129,2.5755 -3.0813,2.5755 -3.0813,4.8985 v 0.303 q 0.9185,4.949 3.4166,7.777 2.4982,2.828 5.8644,2.828 5.6086,0 11.9322,-6.767 l 10.1978,9.898 q -3.7528,5.454 -10.4472,8.6355 -6.6944,3.1815 -13.5908,3.1815 -9.737,0 -16.3304,-5.555 Q 51.005,42.437 51.005,31.125 v -1.212 q 0,-11.312 7.676,-18.18 6.868,-6.06 15.756,-6.06 9.797,0 16.16,5.252 5.151,4.242 8.282,12.221 z m 1.01,6.2131 c 0,-6.4514 2.239,-12.0119 6.717,-16.6816 q 6.716,-7.0045 16.412,-7.0045 11.009,0 18.079,7.1568 6.565,6.6518 6.565,15.8239 0,11.3877 -7.676,18.6455 -7.07,6.6518 -16.968,6.6518 -8.181,0 -15.049,-6.0474 c -5.387,-4.7701 -8.08,-10.9516 -8.08,-18.5445 z m 18.079,0.0016 q 0,2.8027 1.717,4.4045 1.717,1.6018 4.04,1.6018 2.424,0 4.141,-1.6018 1.717,-1.6018 1.717,-4.4045 0,-2.5029 -1.767,-3.9043 -1.768,-1.4014 -4.091,-1.4014 -2.323,0 -4.04,1.4014 -1.717,1.4014 -1.717,3.9043 z"
           id="path2" />
      </g>
      <g
         transform="translate(165.366,4.36)"
         id="g3">
        <path
           d="M 3.939,93.829 V 47.672 q 0,-5.252 1.3635,-9.3425 Q 6.666,34.239 9.393,31.31 q 2.727,-2.929 5.7065,-4.848 2.9795,-1.919 6.3125,-2.929 0.909,-0.303 1.818,-0.505 0.909,-0.202 1.818,-0.303 0.505,-0.101 0.909,-0.1515 0.404,-0.0505 0.909,-0.0505 0.404,-0.101 0.8585,-0.101 0.4545,0 0.8585,0 5.353,0 9.393,1.2625 4.04,1.2625 6.868,3.8885 2.727,2.525 4.6965,5.3025 1.9695,2.7775 2.9795,5.8075 0.404,1.212 0.707,2.424 0.303,1.212 0.404,2.424 0.202,1.212 0.303,2.2725 0.101,1.0605 0.101,2.0705 0,1.01 -0.101,2.1715 -0.101,1.1615 -0.303,2.3735 -0.101,1.212 -0.404,2.424 -0.303,1.212 -0.707,2.424 -1.01,2.929 -2.727,5.656 -1.717,2.727 -4.343,5.252 -2.525,2.525 -6.363,3.939 -3.838,1.414 -8.888,1.818 -1.515,0 -3.03,-0.202 Q 25.654,73.528 23.937,73.124 22.321,72.72 20.2505,72.013 18.18,71.306 15.857,70.094 v -9.696 q 1.515,0.909 2.7775,1.515 1.2625,0.606 2.2725,1.01 1.01,0.404 1.9695,0.707 0.9595,0.303 1.8685,0.505 0.505,0.101 1.0605,0.202 0.5555,0.101 1.1615,0.101 0.505,0.101 1.111,0.101 0.606,0 1.313,0 3.838,0 6.7165,-1.1615 2.8785,-1.1615 4.6965,-3.5855 1.818,-2.424 2.7775,-5.4035 0.9595,-2.9795 0.9595,-6.5145 0,-3.838 -1.2625,-6.9185 Q 42.016,37.875 39.491,35.653 36.966,33.431 34.239,32.32 q -2.727,-1.111 -5.656,-1.111 -0.707,0 -1.414,0.101 -0.707,0.101 -1.515,0.303 -0.808,0.101 -1.616,0.404 -0.808,0.303 -1.616,0.707 -1.818,0.909 -3.4845,2.3735 -1.6665,1.4645 -3.1815,3.4845 -1.515,1.919 -2.2725,4.646 -0.7575,2.727 -0.7575,6.262 V 93.829 Z M 65.953,72.316 v -48.48 h 8.787 v 48.48 z M 65.246,12.625 q 0,-1.111 0.404,-2.0705 Q 66.054,9.595 66.963,8.888 67.771,8.28201 68.7305,7.9285 69.69,7.575 70.7,7.575 q 1.111,0 2.02,0.303 0.909,0.303 1.818,1.01 0.909,0.707 1.3635,1.6665 0.4545,0.9595 0.4545,2.2725 0,1.313 -0.4545,2.323 -0.4545,1.01 -1.2625,1.717 -0.909,0.707 -1.818,1.01 -0.909,0.303 -1.919,0.303 -1.01,0.101 -2.02,-0.202 -1.01,-0.303 -1.919,-1.01 Q 66.054,16.261 65.65,15.2005 65.246,14.14 65.246,12.827 Z M 90.698,1.515 h 9.494 v 70.801 h -9.494 z m 18.988,45.349 q 0,-5.555 1.919,-9.999 1.919,-4.444 5.656,-7.777 3.838,-3.333 8.131,-4.9995 4.292,-1.6665 9.039,-1.6665 0.202,0 0.455,0 0.252,0 0.454,0 0.202,0.101 0.455,0.101 0.252,0 0.555,0 0.202,0 0.455,0 0.252,0 0.555,0 0.202,0.101 0.455,0.101 0.252,0 0.454,0 4.04,0.606 7.727,2.3735 3.686,1.7675 7.12,4.6965 3.333,3.03 5.05,7.575 1.717,4.545 1.717,10.605 0,0.404 0,0.808 0,0.404 -0.101,0.707 0,0.404 -0.05,0.808 -0.051,0.404 -0.051,0.808 -0.101,0.808 -0.252,1.616 -0.152,0.808 -0.354,1.616 -0.909,3.636 -2.777,6.9185 -1.869,3.2825 -4.798,6.2115 -2.828,2.929 -6.767,4.343 -3.939,1.414 -8.787,1.414 -6.868,0 -11.867,-1.8685 -5,-1.8685 -8.131,-5.7065 -3.131,-3.838 -4.696,-8.484 -1.566,-4.646 -1.566,-9.999 z m 9.595,0 q 0,0.808 0,1.4645 0,0.6565 0.101,1.3635 0.101,0.707 0.253,1.3635 0.151,0.6565 0.252,1.3635 0.505,2.222 1.616,4.343 1.111,2.121 2.727,4.04 1.717,1.919 4.242,2.828 2.525,0.909 5.959,0.909 3.232,0 6.06,-0.909 2.828,-0.909 5.151,-2.727 2.323,-1.818 3.485,-5.3025 1.161,-3.4845 1.161,-8.5345 0,-3.535 -1.01,-6.4135 -1.01,-2.8785 -3.03,-5.1005 -2.02,-2.121 -4.999,-3.232 -2.98,-1.111 -6.818,-1.111 -3.636,0 -6.262,0.9595 -2.626,0.9595 -4.343,2.9795 -1.717,1.919 -2.777,4.141 -1.061,2.222 -1.465,4.545 -0.101,0.404 -0.202,0.808 -0.101,0.404 -0.101,0.808 0,0.404 0,0.808 0,0.404 0,0.808 z m 50.096,9.595 V 11.918 h 9.494 v 11.918 h 18.382 v 8.686 h -18.382 v 24.644 q 0,1.414 0.202,2.525 0.202,1.111 0.606,2.121 0.404,1.01 1.768,1.4645 1.363,0.4545 3.787,0.4545 l 11.211,-0.202 v 8.787 h -11.918 q -0.101,0 -0.202,0 -0.101,0 -0.202,0 -0.101,0 -0.151,0 c -0.034,0 -0.085,0.0337 -0.152,0.101 q -0.101,0 -0.202,0 -0.101,0 -0.202,0 -0.101,0 -0.151,0 -0.051,0 -0.152,0 -3.434,0 -5.959,-1.01 -2.525,-1.01 -4.141,-3.131 -1.616,-2.121 -2.474,-4.545 -0.859,-2.424 -1.061,-5.05 -0.101,-0.202 -0.101,-0.4545 0,-0.2525 0,-0.5555 0,-0.202 0,-0.4545 0,-0.2525 0,-0.5555 z"
           id="path3" />
      </g>
    </g>
  </g>
</svg>
