<?xml version="1.0" encoding="utf-8"?>
<svg width="724px" height="210px" viewBox="0 0 724 210" version="1.1" xmlns:xlink="http://www.w3.org/1999/xlink" xmlns="http://www.w3.org/2000/svg">
  <defs>
    <linearGradient gradientUnits="objectBoundingBox" x1="0.09442024" y1="-0.07922797" x2="0.90557975" y2="1.079228" id="gradient_1">
      <stop offset="0%" stop-color="#F59536" />
      <stop offset="100%" stop-color="#CF04AA" />
    </linearGradient>
    <path d="M724 0L724 0L724 210L0 210L0 0L724 0Z" id="path_1" />
    <path d="M0 0L589 0L589 210L0 210L0 0Z" id="path_2" />
    <clipPath id="clip_1">
      <use xlink:href="#path_1" clip-rule="evenodd" fill-rule="evenodd" />
    </clipPath>
    <clipPath id="clip_2">
      <use xlink:href="#path_2" clip-rule="evenodd" fill-rule="evenodd" />
    </clipPath>
  </defs>
  <g id="Frame" clip-path="url(#clip_1)">
    <path d="M724 0L724 0L724 210L0 210L0 0L724 0Z" id="Frame" fill="none" stroke="none" />
    <g id="GEOCop" clip-path="url(#clip_2)" transform="translate(141.59998 0)">
      <g id="GEO-Cop">
        <path d="M106.563 57.1094L87.8125 76.9531Q81.7188 71.5625 75.7422 68.9844Q69.7656 66.4063 63.5156 66.4063Q50.7031 66.4063 41.9922 75.3125Q33.2812 84.2188 33.2813 97.4219Q33.2812 110.313 41.7188 118.984Q50.1563 127.656 62.5781 127.656Q71.3281 127.656 78.0469 122.734Q84.7656 117.813 87.9688 108.984L60.4688 108.984L60.4688 84.1406L118.906 84.1406L118.906 88.8281Q118.906 99.9219 117.266 108.555Q115.625 117.188 112.188 124.141Q105.078 138.828 91.9141 147.188Q78.75 155.547 62.7344 155.547Q50.7031 155.547 40.1563 151.172Q29.6094 146.797 21.4063 138.516Q13.2812 130.234 8.94531 119.727Q4.60938 109.219 4.60938 97.5781Q4.60938 85.9375 8.94531 75.5078Q13.2813 65.0781 21.5625 56.7969Q29.7656 48.4375 40.5469 44.0625Q51.3281 39.6875 63.5156 39.6875Q75.3906 39.6875 86.1328 44.0234Q96.875 48.3594 106.563 57.1094ZM200.625 153.594L197.734 153.594Q183.125 153.594 172.188 151.25Q161.25 148.906 153.75 144.141Q141.484 136.25 134.805 124.141Q128.125 112.031 128.125 97.5781Q128.125 83.125 134.766 71.0938Q141.406 59.0625 153.75 51.1719Q161.25 46.4063 172.188 44.0625Q183.125 41.7188 197.734 41.7188L200.625 41.7188L200.625 67.1875Q199.531 67.1094 198.32 67.0703Q197.109 67.0313 194.844 67.0313Q180.156 67.0313 171.484 71.3281Q162.813 75.625 159.063 84.6094L200.625 84.6094L200.625 109.609L158.516 109.609Q161.328 118.828 170.547 123.477Q179.766 128.125 195.391 128.125Q197.5 128.125 198.633 128.086Q199.766 128.047 200.625 128.047L200.625 153.594ZM240.313 97.4219Q240.313 110 248.828 118.828Q257.344 127.656 269.297 127.656Q281.25 127.656 289.648 118.867Q298.047 110.078 298.047 97.4219Q298.047 84.7656 289.688 76.0547Q281.328 67.3438 269.297 67.3438Q257.188 67.3438 248.75 76.0938Q240.313 84.8438 240.313 97.4219ZM211.797 97.5781Q211.797 85.9375 216.133 75.5078Q220.469 65.0781 228.75 56.6406Q236.953 48.4375 247.344 44.1406Q257.734 39.8438 269.297 39.8438Q280.859 39.8438 291.328 44.2188Q301.797 48.5938 309.922 56.7969Q317.969 64.9219 322.266 75.3906Q326.563 85.8594 326.563 97.5781Q326.563 109.375 322.266 119.922Q317.969 130.469 309.922 138.516Q301.797 146.797 291.328 151.172Q280.859 155.547 269.297 155.547Q257.813 155.547 247.422 151.172Q237.031 146.797 228.75 138.516Q220.469 130.078 216.133 119.688Q211.797 109.297 211.797 97.5781Z" />
      </g>
      <g transform="translate(331.01562, 0)" id="GEO-Cop">
        <path d="M74.8438 55.4688Q73.8281 55.3906 72.7344 55.3516Q71.6406 55.3125 69.4531 55.3125Q46.7188 55.3125 33.5938 66.8359Q20.4688 78.3594 20.4688 98.0469Q20.4688 117.734 33.5938 129.258Q46.7188 140.781 69.4531 140.781Q71.6406 140.781 72.7734 140.742Q73.9062 140.703 74.8438 140.625L74.8438 154.063L70.5469 154.063Q58.125 154.063 48.6719 152.109Q39.2187 150.156 32.8125 146.25Q19.375 138.047 12.3438 125.742Q5.3125 113.438 5.3125 98.0469Q5.3125 82.7344 12.3438 70.4688Q19.375 58.2031 32.8125 50.0781Q39.2188 46.1719 48.6719 44.1797Q58.125 42.1875 70.5469 42.1875L74.8438 42.1875L74.8438 55.4688ZM98.75 115.469Q98.75 126.641 105.898 134.414Q113.047 142.188 123.203 142.188Q133.359 142.188 140.508 134.414Q147.656 126.641 147.656 115.469Q147.656 104.375 140.547 96.6406Q133.438 88.9063 123.203 88.9063Q113.047 88.9063 105.898 96.6406Q98.75 104.375 98.75 115.469ZM84.4531 115.625Q84.4531 107.656 87.4219 100.469Q90.3906 93.2813 96.0156 87.5Q101.563 81.875 108.477 78.9453Q115.391 76.0156 123.203 76.0156Q131.016 76.0156 138.047 78.9453Q145.078 81.875 150.547 87.5Q156.094 93.125 159.023 100.391Q161.953 107.656 161.953 115.625Q161.953 123.75 159.023 131.055Q156.094 138.359 150.547 143.984Q145.078 149.609 138.047 152.539Q131.016 155.469 123.203 155.469Q115.391 155.469 108.477 152.539Q101.563 149.609 96.0156 143.984Q90.3906 138.281 87.4219 131.016Q84.4531 123.75 84.4531 115.625ZM174.844 188.125L174.844 121.875Q174.844 112.109 175.82 106.719Q176.797 101.328 179.063 96.7969Q183.828 87.0313 193.008 81.5234Q202.188 76.0156 213.438 76.0156Q230.156 76.0156 241.016 87.2266Q251.875 98.4375 251.875 115.625Q251.875 123.438 249.18 130.547Q246.484 137.656 241.406 143.203Q236.25 148.984 229.063 152.148Q221.875 155.313 214.063 155.313Q208.359 155.313 203.164 154.023Q197.969 152.734 193.281 150.078L193.281 135.313Q197.969 138.906 202.813 140.625Q207.656 142.344 212.656 142.344Q223.672 142.344 230.781 134.766Q237.891 127.188 237.891 115.313Q237.891 103.75 230.938 96.3281Q223.984 88.9063 213.125 88.9063Q202.266 88.9063 195.469 96.3672Q188.672 103.828 188.672 115.859L188.672 188.125L174.844 188.125Z" />
      </g>
    </g>
    <path d="M16 51L71 51L71 106L16 106L16 51Z" id="Rectangle" fill="#C1C1C1" fill-rule="evenodd" stroke="none" />
    <path d="M75 110L130 110L130 165L75 165L75 110Z" id="Rectangle-4" fill="#C1C1C1" fill-rule="evenodd" stroke="none" />
    <path d="M84 41L138.164 50.5506L128.614 104.715L74.4494 95.1644L84 41Z" id="Rectangle-3" fill="url(#gradient_1)" fill-rule="evenodd" stroke="none" />
    <path d="M16 110L71 110L71 165L16 165L16 110Z" id="Rectangle-5" fill="#007CC3" fill-rule="evenodd" stroke="none" />
  </g>
</svg>
